<svg width="137" height="140" viewBox="0 0 137 140" fill="none" xmlns="http://www.w3.org/2000/svg">
<g clip-path="url(#clip0_26_3)">
<path d="M86.8966 1.78776L20.2732 12.8956C18.1636 13.247 16.7197 15.1396 17.0512 17.1215L22.7892 51.5079L97.0527 39.124L91.3147 4.73756C90.9832 2.75855 89.0033 1.43344 86.8937 1.78488L86.8966 1.78776ZM88.5479 40.2417L31.1989 49.8054L26.8413 23.6923C26.5445 21.9207 27.8385 20.224 29.7262 19.9071L80.2305 11.4869C82.1211 11.1729 83.8935 12.3569 84.1903 14.1285L88.5479 40.2417Z" fill="black" stroke="black" stroke-miterlimit="10"/>
<path d="M103.578 36.028L18.2965 50.2468C6.36454 52.2362 -1.69477 63.5171 0.295537 75.4435L7.97725 121.474C9.96755 133.401 21.2538 141.456 33.1857 139.467L118.468 125.248C130.4 123.259 138.459 111.978 136.469 100.051L128.787 54.0206C126.797 42.0942 115.51 34.0387 103.578 36.028Z" fill="#FBB03B"/>
<path d="M23.2549 95.586C22.2231 95.851 21.1827 96.0584 20.1337 96.2111C19.0846 96.3637 18.0327 96.502 16.9779 96.6316C16.8194 96.6576 16.6522 96.6518 16.4822 96.6086C16.3121 96.5683 16.1709 96.4963 16.0614 96.3983C15.9202 96.2572 15.8193 96.0987 15.753 95.923C15.6896 95.7473 15.6291 95.5687 15.5772 95.393C14.9461 92.7428 14.4734 90.0695 14.1506 87.3761C13.8307 84.6856 13.5598 81.9777 13.3379 79.2584C12.6549 79.3707 11.9805 79.5033 11.3176 79.6473C10.6519 79.7942 9.98326 79.9469 9.30887 80.1053L8.66042 80.2148C8.43274 80.2522 8.21947 80.2666 8.01773 80.2522C7.81599 80.2378 7.64596 80.1975 7.50474 80.1284C7.36352 80.0592 7.26553 79.9238 7.20789 79.7222C6.52486 77.1728 6.09544 74.5917 5.91675 71.9819C5.90811 71.7975 5.91675 71.6189 5.93404 71.4547C5.95422 71.2876 6.00898 71.1378 6.10408 71.0053C6.25683 70.7922 6.44704 70.6452 6.6776 70.5588C6.90816 70.4724 7.15025 70.409 7.40099 70.3687C7.69495 70.3197 8.19354 70.2131 8.89098 70.0489C9.58843 69.8847 10.3983 69.6975 11.3205 69.4872C12.2428 69.274 13.2111 69.0436 14.2198 68.793C15.2314 68.5424 16.194 68.3061 17.1162 68.0814C18.0385 67.8568 18.8454 67.6638 19.5429 67.5024C20.2403 67.3411 20.736 67.223 21.0271 67.151C21.2317 67.1164 21.566 67.0502 22.0272 66.9494C22.4883 66.8485 22.9753 66.7563 23.4883 66.6699C24.0013 66.5835 24.4913 66.5144 24.961 66.4596C25.4308 66.4049 25.7594 66.3847 25.9496 66.3991C26.1398 66.4135 26.3069 66.4798 26.4568 66.595C26.6038 66.7103 26.6931 66.8485 26.7191 67.007C26.7536 67.2115 26.8142 67.5399 26.9006 67.9921C26.9871 68.4444 27.0822 68.9773 27.1859 69.5909L27.5059 71.5008L27.8258 73.4107L28.0967 75.0296L28.2581 76.0004C28.2898 76.1819 28.2753 76.3777 28.2148 76.5851C28.1572 76.7926 28.039 76.9366 27.8661 77.0115C27.673 77.1152 27.2983 77.216 26.7421 77.3226C26.1859 77.4263 25.5922 77.5386 24.9582 77.6539C24.3241 77.772 23.7218 77.8786 23.154 77.9736C22.5863 78.0687 22.2001 78.1436 22.0012 78.2012C22.2087 80.1514 22.4768 82.0699 22.8024 83.9539C23.1281 85.8378 23.497 87.7391 23.912 89.6576C23.935 89.793 24.0042 90.081 24.1253 90.516C24.2434 90.951 24.3731 91.4148 24.5143 91.9045C24.6555 92.3942 24.7766 92.8551 24.8832 93.2786C24.9899 93.7049 25.0533 93.9872 25.0763 94.1226C25.1138 94.3502 25.0821 94.5432 24.9783 94.6987C24.8746 94.8572 24.7334 94.9897 24.5547 95.102C24.3731 95.2144 24.1685 95.3065 23.935 95.3814C23.7016 95.4563 23.4739 95.5226 23.2491 95.5831L23.2549 95.586Z" fill="black"/>
<path d="M54.6716 88.6551C54.4699 88.7127 54.0837 88.8049 53.5102 88.9374C52.9367 89.0699 52.3199 89.1995 51.6657 89.332C51.0086 89.4646 50.3947 89.5913 49.8183 89.7094C49.2419 89.8304 48.8529 89.9053 48.6483 89.9399C48.533 89.96 48.3341 89.986 48.0488 90.0234C47.7635 90.0609 47.5675 90.0407 47.4609 89.9629C47.3312 89.8909 47.2332 89.7901 47.164 89.6604C47.0084 89.43 46.9046 89.1851 46.847 88.9259C46.7922 88.6666 46.7317 88.4131 46.6683 88.1683C45.9219 84.8123 45.2504 81.4535 44.6538 78.0946C44.0572 74.7358 43.6941 71.3395 43.5673 67.9028C43.5673 67.7617 43.5557 67.5485 43.5298 67.2605C43.5039 66.9724 43.4952 66.6699 43.501 66.353C43.5068 66.0362 43.5212 65.7366 43.5442 65.4514C43.5673 65.1662 43.6134 64.9617 43.6854 64.8321C43.7805 64.6996 43.9391 64.5728 44.1667 64.4547C44.3915 64.3366 44.6394 64.2358 44.9045 64.1551C45.1726 64.0745 45.4348 64.0024 45.6913 63.9362C45.9478 63.8699 46.1582 63.8238 46.3167 63.7979C48.4004 63.4033 50.4898 63.0317 52.5822 62.6831C54.6745 62.3345 56.7755 62.1127 58.888 62.0177C59.1676 62.0177 59.4586 62.009 59.7613 61.9946C60.061 61.9802 60.3204 62.0465 60.5308 62.1991C60.6403 62.2971 60.7354 62.4411 60.8132 62.6255C60.891 62.8127 60.9544 63.0172 61.0034 63.2419C61.0524 63.4666 61.0841 63.6913 61.0985 63.9103C61.1129 64.1292 61.1302 64.3078 61.1533 64.4432C61.2109 65.2037 61.2368 65.9584 61.234 66.7074C61.2311 67.4563 61.2196 68.2053 61.2051 68.9543C61.1965 69.0493 61.1907 69.2481 61.1821 69.5535C61.1734 69.8588 61.1561 70.0605 61.1244 70.1584C61.0668 70.3773 60.9314 70.5473 60.7181 70.6654C60.5048 70.7835 60.257 70.8699 59.9745 70.9304C59.6921 70.9909 59.401 71.0255 59.0984 71.0428C58.7958 71.0572 58.5306 71.0744 58.3001 71.0888C58.1128 71.0975 57.7294 71.1321 57.1444 71.1954C56.5594 71.2588 55.9253 71.3164 55.2452 71.3712C54.565 71.4259 53.931 71.4864 53.3459 71.5469C52.7609 71.6074 52.3747 71.6448 52.1902 71.6535C52.2825 72.1979 52.366 72.7395 52.4438 73.2753C52.5217 73.8111 52.6283 74.3497 52.7666 74.8856C53.6485 74.7156 54.5333 74.5543 55.421 74.4074C56.3086 74.2604 57.1819 74.102 58.0407 73.9349L58.741 73.8197C58.9802 73.7794 59.1993 73.7736 59.4039 73.7967C59.6056 73.8226 59.7785 73.8802 59.9255 73.9724C60.0696 74.0646 60.159 74.2144 60.1936 74.4189C60.2137 74.5341 60.2397 74.7386 60.28 75.0354C60.3175 75.3321 60.355 75.6605 60.3924 76.0148C60.427 76.372 60.4674 76.7032 60.5048 77.0115C60.5452 77.3197 60.5711 77.5214 60.5884 77.6107C60.6057 77.7 60.6345 77.8555 60.6835 78.0687C60.7296 78.2819 60.7786 78.5094 60.8305 78.7456C60.8824 78.9818 60.9198 79.2094 60.9429 79.4284C60.9659 79.6473 60.9659 79.8057 60.9342 79.9037C60.8939 80.0736 60.7786 80.2263 60.5913 80.3646C60.4039 80.5 60.1878 80.6123 59.9457 80.6987C59.7036 80.7851 59.4587 80.8629 59.2137 80.9263C58.9658 80.9897 58.7526 81.0386 58.571 81.0674C57.8505 81.2345 57.1358 81.3901 56.421 81.5312C55.7092 81.6724 54.9887 81.8049 54.2595 81.9259C54.3892 82.839 54.5737 83.7436 54.8157 84.6366C55.0578 85.5296 55.3345 86.4197 55.6458 87.3012C55.6861 87.4107 55.7092 87.5432 55.712 87.693C55.712 87.8456 55.6775 87.9839 55.6083 88.1135C55.5161 88.2691 55.3835 88.3843 55.2106 88.4592C55.0348 88.5341 54.859 88.6004 54.6832 88.6522L54.6716 88.6551Z" fill="black"/>
<path d="M73.6352 85.4921C73.4335 85.5497 73.0473 85.6419 72.4738 85.7744C71.9003 85.907 71.2835 86.0366 70.6293 86.1691C69.9722 86.3016 69.3583 86.4283 68.7819 86.5465C68.2055 86.6674 67.8165 86.7423 67.6118 86.7769C67.4966 86.7971 67.2977 86.823 67.0124 86.8604C66.7271 86.8979 66.5311 86.8777 66.4245 86.8C66.2948 86.7279 66.1968 86.6271 66.1276 86.4975C65.972 86.267 65.8682 86.0222 65.8106 85.7629C65.7558 85.5037 65.6953 85.2502 65.6319 85.0053C64.8855 81.6493 64.214 78.2905 63.6174 74.9316C63.0208 71.5728 62.6577 68.1765 62.5309 64.7399C62.5309 64.5987 62.5193 64.3856 62.4934 64.0975C62.4675 63.8094 62.4588 63.507 62.4646 63.1901C62.4703 62.8732 62.4848 62.5736 62.5078 62.2884C62.5309 62.0033 62.577 61.7987 62.649 61.6691C62.7441 61.5366 62.9055 61.4098 63.1303 61.2917C63.3551 61.1736 63.603 61.0728 63.8681 60.9921C64.1361 60.9115 64.3984 60.8395 64.6549 60.7732C64.9114 60.707 65.1218 60.6609 65.2803 60.6349C67.364 60.2403 69.4534 59.8687 71.5458 59.5201C73.6381 59.1716 75.7391 58.9498 77.8516 58.8547C78.1312 58.8547 78.4222 58.8461 78.7249 58.8317C79.0246 58.8172 79.284 58.8835 79.4943 59.0362C79.6039 59.1341 79.699 59.2782 79.7768 59.4625C79.8546 59.6498 79.918 59.8543 79.967 60.079C80.016 60.3037 80.0477 60.5284 80.0621 60.7473C80.0765 60.9662 80.0938 61.1448 80.1169 61.2802C80.1745 62.0407 80.2004 62.7954 80.1976 63.5444C80.1947 64.2934 80.1831 65.0423 80.1687 65.7913C80.1601 65.8864 80.1543 66.0851 80.1457 66.3905C80.137 66.6958 80.1197 66.8975 80.088 66.9954C80.0304 67.2144 79.8949 67.3843 79.6817 67.5024C79.4684 67.6205 79.2206 67.707 78.9381 67.7675C78.6557 67.8279 78.3646 67.8625 78.062 67.8798C77.7594 67.8942 77.4942 67.9115 77.2637 67.9259C77.0763 67.9345 76.693 67.9691 76.1051 68.0325C75.5201 68.0958 74.886 68.1535 74.2059 68.2082C73.5257 68.2629 72.8917 68.3234 72.3066 68.3839C71.7216 68.4444 71.3354 68.4819 71.1481 68.4905C71.2403 69.0349 71.3239 69.5765 71.4017 70.1123C71.4795 70.6481 71.5861 71.1868 71.7245 71.7226C72.6064 71.5526 73.494 71.3913 74.3788 71.2444C75.2636 71.0975 76.1397 70.9391 76.9985 70.772L77.6989 70.6568C77.9381 70.6164 78.1571 70.6107 78.3617 70.6337C78.5635 70.6596 78.7364 70.7172 78.8834 70.8094C79.0275 70.9016 79.1168 71.0514 79.1514 71.2559C79.1716 71.3712 79.1975 71.5757 79.2378 71.8724C79.2753 72.1691 79.3128 72.4975 79.3502 72.8518C79.3848 73.209 79.4252 73.5403 79.4626 73.8485C79.503 74.1567 79.5289 74.3584 79.5462 74.4477C79.5635 74.537 79.5923 74.6926 79.6413 74.9057C79.6874 75.1189 79.7364 75.3465 79.7883 75.5827C79.8402 75.8189 79.8776 76.0465 79.9007 76.2654C79.9238 76.4843 79.9238 76.6428 79.8921 76.7407C79.8517 76.9107 79.7364 77.0633 79.5491 77.2016C79.3618 77.337 79.1456 77.4493 78.9035 77.5358C78.6614 77.6222 78.4165 77.7 78.1686 77.7633C77.9208 77.8267 77.7075 77.8757 77.5259 77.9045C76.8054 78.0716 76.0907 78.2271 75.376 78.3683C74.6641 78.5094 73.9436 78.6419 73.2145 78.7629C73.3441 79.6761 73.5286 80.5806 73.7736 81.4736C74.0157 82.3666 74.2923 83.2567 74.6036 84.1382C74.6439 84.2477 74.667 84.3802 74.6699 84.53C74.6699 84.6827 74.6353 84.8209 74.5661 84.9506C74.4739 85.1061 74.3413 85.2214 74.1684 85.2963C73.9926 85.3711 73.8168 85.4374 73.641 85.4893L73.6352 85.4921Z" fill="black"/>
<path d="M91.5555 82.574C91.1549 82.6892 90.6189 82.7814 89.956 82.8592C89.2903 82.9341 88.6015 82.9802 87.8925 82.9917C87.1806 83.0061 86.4976 82.9744 85.8434 82.8967C85.1863 82.8189 84.6906 82.6806 84.3534 82.479C84.2496 82.4271 84.1689 82.3234 84.1084 82.1678C84.0479 82.0152 84.0018 81.8481 83.973 81.6637C83.9441 81.4794 83.9182 81.3037 83.9009 81.1337C83.8836 80.9609 83.8663 80.8197 83.8462 80.7045C83.5349 78.5613 83.2698 76.4382 83.0478 74.3382C82.8259 72.2382 82.6184 70.1181 82.4253 67.9749C82.3043 66.5461 82.1832 65.1288 82.068 63.723C81.9498 62.3172 81.797 60.9057 81.6068 59.4884C81.5751 59.307 81.5578 59.1226 81.5492 58.9382C81.5405 58.7539 81.5953 58.5926 81.7135 58.4543C81.7913 58.3707 81.9267 58.2901 82.1112 58.2123C82.2956 58.1345 82.5003 58.0654 82.7251 58.0049C82.9499 57.9444 83.1631 57.8926 83.3649 57.8465C83.5666 57.8004 83.7251 57.7687 83.8404 57.7485C84.8059 57.5181 85.7857 57.3251 86.7772 57.1724C87.7686 57.0197 88.7629 56.9275 89.7658 56.9016C89.907 56.9016 90.0943 56.9045 90.3278 56.9131C90.5612 56.9218 90.8033 56.9333 91.054 56.9506C91.3019 56.9679 91.5296 57.0053 91.74 57.0629C91.9475 57.1205 92.0973 57.2127 92.1896 57.3395C92.3452 57.5699 92.4172 57.8609 92.4057 58.2152C92.3365 59.909 92.3279 61.6 92.374 63.2851C92.4201 64.9703 92.495 66.6699 92.593 68.3839C92.6737 69.7032 92.7688 71.0053 92.8784 72.2958C92.9879 73.5864 93.0945 74.8884 93.1983 76.202C93.2242 76.3604 93.2588 76.6716 93.302 77.1325C93.3452 77.5934 93.3856 78.0831 93.4231 78.6016C93.4634 79.1201 93.4922 79.6127 93.5124 80.0765C93.5326 80.5403 93.5412 80.8543 93.547 81.0156L93.5585 81.0847C93.5614 81.1078 93.5758 81.1164 93.5989 81.1135C93.6853 81.3555 93.6796 81.5572 93.5758 81.7127C93.472 81.8711 93.3135 82.0008 93.0974 82.1074C92.8812 82.2139 92.6334 82.3032 92.3538 82.3724C92.0743 82.4415 91.8091 82.5106 91.5642 82.574H91.5555Z" fill="black"/>
<path d="M118.897 79.172C118.733 79.316 118.54 79.4111 118.315 79.4629C118.09 79.5119 117.851 79.558 117.6 79.5983L116.629 79.7596L115.061 80.0218L113.476 80.2868L112.488 80.451C112.078 80.5201 111.709 80.4769 111.378 80.3214C111.098 80.1802 110.839 80.0074 110.608 79.8028C110.375 79.5954 110.17 79.3794 109.992 79.1518C109.346 78.3711 108.741 77.5674 108.17 76.7407C107.6 75.9139 107.043 75.067 106.502 74.1971C105.723 73.0419 104.977 71.8868 104.259 70.7345C103.542 69.5823 102.813 68.4127 102.078 67.2259C102.147 67.4938 102.262 67.9432 102.424 68.5712C102.585 69.1991 102.781 69.9078 103.006 70.7C103.231 71.4921 103.475 72.3275 103.741 73.2061C104.003 74.0847 104.254 74.9201 104.493 75.7094C104.729 76.4987 104.948 77.2045 105.144 77.8267C105.34 78.4489 105.496 78.8897 105.611 79.1518C105.651 79.2613 105.698 79.3823 105.741 79.5148C105.787 79.6473 105.796 79.774 105.77 79.895C105.706 80.0707 105.551 80.2004 105.308 80.2868C105.176 80.3329 104.891 80.4078 104.452 80.5172C104.014 80.6267 103.545 80.7506 103.043 80.8917C102.542 81.0329 102.072 81.1596 101.634 81.2662C101.196 81.3757 100.911 81.4506 100.778 81.4967C100.663 81.5168 100.524 81.5514 100.357 81.6032C100.19 81.6551 100.017 81.707 99.8413 81.7588C99.6626 81.8135 99.4926 81.8452 99.3312 81.8625C99.1698 81.8769 99.0401 81.8712 98.9421 81.8395C98.7404 81.7559 98.5991 81.6061 98.5156 81.3843C98.432 81.1654 98.3513 80.9551 98.2706 80.7592C97.0832 77.288 96.1206 73.765 95.3828 70.1843C94.645 66.6037 94.0513 62.9827 93.6046 59.3185C93.6017 59.1572 93.6046 58.9843 93.6248 58.8057C93.6421 58.6271 93.6969 58.4716 93.792 58.3391C93.9389 58.1028 94.1119 57.907 94.305 57.7456C94.5009 57.5843 94.7142 57.4374 94.9505 57.3049C95.3972 57.0428 95.8699 56.8296 96.3685 56.6654C96.8671 56.5012 97.3714 56.3399 97.8844 56.1843C98.04 56.1354 98.2908 56.0633 98.6366 55.9712C98.9824 55.879 99.3456 55.7839 99.7289 55.6831C100.109 55.5852 100.475 55.5045 100.83 55.4469C101.184 55.3893 101.429 55.3605 101.568 55.3576C101.902 55.395 102.23 55.5506 102.556 55.8242C102.772 55.9971 102.974 56.193 103.161 56.4061C103.349 56.6193 103.533 56.8411 103.709 57.0687C103.945 57.3568 104.308 57.8695 104.807 58.6041C105.303 59.3386 105.859 60.1769 106.47 61.1131C107.084 62.0522 107.726 63.0461 108.407 64.1033C109.084 65.1576 109.727 66.1658 110.332 67.1279C110.937 68.0901 111.47 68.9428 111.934 69.6831C112.395 70.4234 112.735 70.9506 112.952 71.2646C112.871 69.2452 112.747 67.2461 112.58 65.2642C112.413 63.2823 112.188 61.3004 111.902 59.3156C111.882 59.2033 111.848 59.0218 111.796 58.774C111.741 58.5263 111.692 58.2642 111.649 57.9934C111.606 57.7226 111.574 57.4691 111.557 57.2386C111.542 57.0082 111.557 56.8296 111.609 56.7057C111.66 56.6049 111.753 56.4897 111.885 56.3629C112.015 56.2362 112.165 56.1181 112.335 56.0086C112.502 55.8991 112.666 55.7954 112.828 55.6975C112.986 55.5996 113.122 55.5333 113.231 55.4901C113.733 55.2654 114.246 55.0868 114.773 54.9514C115.3 54.816 115.839 54.7152 116.387 54.6461C116.845 54.5942 117.3 54.5568 117.753 54.5395C118.205 54.5222 118.649 54.5596 119.087 54.6489C119.352 54.6979 119.574 54.8362 119.753 55.0638C119.932 55.2913 120.07 55.5592 120.168 55.8703C120.266 56.1814 120.344 56.5012 120.399 56.8296L120.548 57.7341C120.837 59.7419 121.004 61.7642 121.053 63.8008C121.102 65.8374 121.059 67.8712 120.932 69.902C120.84 71.1782 120.727 72.4543 120.589 73.7275C120.451 75.0008 120.191 76.2539 119.814 77.4839C119.727 77.8037 119.62 78.1119 119.494 78.4144C119.37 78.7168 119.171 78.9703 118.903 79.1777L118.897 79.172Z" fill="black"/>
<path d="M51.4928 120.55C49.9394 120.901 48.3831 121.109 46.8268 121.169C45.2705 121.23 43.6998 121.276 42.1176 121.307C41.792 121.316 41.4576 121.313 41.1176 121.299C40.7775 121.284 40.4835 121.172 40.2357 120.956C40.1262 120.858 40.0426 120.743 39.9849 120.613C39.9273 120.483 39.8898 120.36 39.8725 120.247C39.8466 120.089 39.8005 119.786 39.74 119.34C39.6766 118.893 39.6132 118.415 39.5526 117.9C39.4892 117.384 39.4316 116.897 39.3797 116.439C39.325 115.981 39.2875 115.673 39.2616 115.511C38.9359 112.576 38.5987 109.652 38.2529 106.743C37.907 103.833 37.4344 100.932 36.8349 98.0432C36.809 97.8847 36.7974 97.7061 36.7974 97.5073C36.7974 97.3086 36.8205 97.1127 36.858 96.9197C36.8954 96.7267 36.9588 96.5481 37.0482 96.381C37.1375 96.2139 37.2442 96.0843 37.3681 95.995C37.8523 95.681 38.3653 95.4189 38.9042 95.2143C39.4431 95.0069 39.9907 94.8226 40.5469 94.6613C42.7488 93.9901 45.0371 93.5609 47.4147 93.3765C48.386 93.3074 49.3659 93.2728 50.3602 93.2699C51.3544 93.2699 52.3257 93.3851 53.2767 93.6242C54.199 93.8201 55.0261 94.2032 55.7639 94.7679C56.5017 95.3353 57.1213 96.0065 57.6257 96.7872C58.13 97.5678 58.4903 98.4263 58.7036 99.3596C58.9168 100.293 58.9629 101.226 58.8361 102.16C58.643 103.384 58.1531 104.539 57.3634 105.628C56.5738 106.717 55.6515 107.595 54.5938 108.264C55.4325 108.523 56.176 108.923 56.8274 109.468C57.4787 110.012 58.0032 110.637 58.4038 111.343C58.8015 112.049 59.058 112.818 59.1733 113.651C59.2886 114.483 59.2194 115.318 58.9601 116.157C58.8246 116.6 58.5912 117.001 58.2655 117.358C57.9398 117.715 57.5767 118.021 57.1732 118.277C56.3086 118.841 55.4008 119.308 54.444 119.677C53.49 120.046 52.5044 120.339 51.487 120.555L51.4928 120.55ZM46.4925 114.76C46.7663 114.714 47.1438 114.667 47.628 114.624C48.1122 114.578 48.6137 114.512 49.1382 114.425C49.6627 114.339 50.1469 114.235 50.5936 114.111C51.0403 113.99 51.366 113.832 51.5648 113.633C51.683 113.498 51.7608 113.342 51.804 113.172C51.8444 113.002 51.8617 112.824 51.8559 112.639C51.8357 112.386 51.7839 112.144 51.7003 111.911C51.6138 111.68 51.4985 111.47 51.3516 111.286C51.121 111.021 50.778 110.856 50.3227 110.79C49.8673 110.727 49.3803 110.715 48.8615 110.753C48.3427 110.793 47.8269 110.856 47.3139 110.94L46.0343 111.153C46.0544 111.268 46.0804 111.496 46.115 111.842C46.1495 112.187 46.1928 112.559 46.2475 112.959C46.3023 113.36 46.3513 113.731 46.3974 114.074C46.4435 114.417 46.4752 114.644 46.4954 114.76H46.4925ZM45.7864 107.379C45.9997 107.391 46.3081 107.356 46.7173 107.276C47.1237 107.195 47.5473 107.097 47.9825 106.976C48.4177 106.858 48.8298 106.728 49.216 106.596C49.6022 106.46 49.8789 106.334 50.046 106.213C50.487 105.907 50.827 105.527 51.0662 105.078C51.3083 104.628 51.4409 104.179 51.4726 103.73C51.5043 103.28 51.4034 102.871 51.1786 102.5C50.9538 102.128 50.585 101.88 50.072 101.756C49.7809 101.687 49.4869 101.65 49.1929 101.641C48.899 101.632 48.5992 101.63 48.2966 101.632C47.7404 101.655 47.1842 101.719 46.628 101.823C46.0717 101.926 45.5097 102.027 44.942 102.122C45.0861 102.986 45.2187 103.851 45.3397 104.721C45.4607 105.588 45.5703 106.458 45.6711 107.33C45.6337 107.385 45.6711 107.4 45.7835 107.382L45.7864 107.379Z" fill="black"/>
<path d="M80.1226 108.906C79.4569 109.952 78.647 110.856 77.7017 111.623C76.7536 112.389 75.7218 112.988 74.6007 113.42C73.4796 113.852 72.3124 114.106 71.0991 114.181C69.8857 114.255 68.6868 114.123 67.5081 113.78C66.4763 113.486 65.4849 113.031 64.5281 112.421C63.5713 111.81 62.7874 111.064 62.1735 110.185C61.3809 109.079 60.819 107.846 60.4875 106.489C60.1561 105.132 59.9227 103.773 59.7901 102.419C59.6489 101.019 59.7065 99.6074 59.9601 98.1843C60.2137 96.7641 60.6316 95.4102 61.2109 94.1197C61.5567 93.3851 61.9487 92.6534 62.3868 91.9246C62.8277 91.1987 63.3753 90.5678 64.0353 90.0378C64.629 89.5423 65.2861 89.1275 66.0037 88.7991C66.7213 88.4707 67.4504 88.2201 68.1911 88.0473C69.6091 87.7189 71.0847 87.6411 72.6236 87.8168C74.1598 87.9925 75.5806 88.416 76.8861 89.0872C77.5317 89.4473 78.1312 89.8621 78.6874 90.3288C79.2436 90.7954 79.7364 91.3226 80.1601 91.9045C80.7826 92.8292 81.2207 93.8547 81.48 94.9781C81.8259 96.4876 82.0478 98.0259 82.1458 99.5987C82.2438 101.172 82.1516 102.716 81.8691 104.237C81.702 105.058 81.4743 105.867 81.1861 106.662C80.8979 107.457 80.5434 108.206 80.1226 108.906ZM68.7848 104C69.1134 104.435 69.5024 104.703 69.952 104.804C70.4016 104.905 70.8541 104.888 71.3094 104.752C71.7648 104.617 72.2 104.375 72.6092 104.026C73.0185 103.678 73.347 103.26 73.592 102.776C73.8197 102.318 74.0099 101.776 74.1626 101.157C74.3154 100.535 74.4018 99.9012 74.4249 99.2559C74.4451 98.6106 74.3846 97.9942 74.2405 97.4123C74.0964 96.8304 73.8399 96.3464 73.4738 95.9633C72.9378 95.4218 72.2922 95.1855 71.5314 95.2518C70.7705 95.3209 70.1221 95.632 69.5831 96.1909C69.3065 96.4934 69.0759 96.8246 68.8886 97.1818C68.7041 97.539 68.5485 97.9164 68.4274 98.3111C68.2142 98.9995 68.073 99.6966 68.0038 100.397C67.9346 101.097 67.9807 101.797 68.1421 102.494C68.2344 103.038 68.4447 103.542 68.779 104H68.7848Z" fill="black"/>
<path d="M90.2096 113.043C89.9676 113.129 89.7139 113.155 89.4517 113.118C89.1865 113.08 88.9329 113.023 88.6879 112.948C88.3709 112.861 87.9876 112.743 87.5409 112.596C87.0942 112.449 86.6504 112.271 86.2065 112.066C85.7627 111.859 85.3679 111.623 85.0192 111.352C84.6704 111.084 84.4456 110.793 84.3476 110.482C84.2756 110.191 84.3044 109.871 84.4341 109.523C84.9327 108.036 85.4515 106.579 85.9817 105.147C86.5149 103.715 87.0827 102.283 87.685 100.849C86.5841 99.4432 85.5552 97.9971 84.5955 96.5106C83.6329 95.0242 82.7539 93.4946 81.9527 91.9218C81.8461 91.7057 81.7683 91.4781 81.7164 91.2419C81.6645 91.0057 81.6818 90.7868 81.7654 90.5851C81.8691 90.3576 82.0276 90.1674 82.2496 90.0148C82.4686 89.8621 82.6991 89.7296 82.9383 89.6201C83.0882 89.5481 83.4052 89.4069 83.8836 89.1995C84.3621 88.9921 84.8693 88.7732 85.4053 88.5428C85.9385 88.3123 86.4544 88.0991 86.9472 87.9004C87.44 87.7016 87.7743 87.5748 87.953 87.523C88.126 87.4481 88.3104 87.3934 88.5035 87.3617C88.6966 87.33 88.881 87.3473 89.054 87.4107C89.2326 87.4971 89.371 87.6382 89.4747 87.8312C89.5785 88.0242 89.6649 88.2086 89.7428 88.3814C90.0454 89.0786 90.3768 89.7641 90.7342 90.4411C91.0915 91.1181 91.4777 91.7835 91.8927 92.4374C92.057 92.1522 92.3193 91.7057 92.6853 91.095C93.0513 90.4843 93.4432 89.8592 93.8611 89.2168C94.279 88.5744 94.6998 87.9724 95.1206 87.4135C95.5413 86.8518 95.8872 86.4802 96.161 86.293C96.5414 86.0423 96.9564 85.9502 97.4118 86.0135C97.5789 86.0337 97.8354 86.1115 98.187 86.2526C98.5386 86.3938 98.9133 86.5522 99.3197 86.7308C99.7231 86.9094 100.098 87.0851 100.444 87.2609C100.789 87.4366 101.037 87.5604 101.187 87.6267C101.594 87.8168 101.994 88.0242 102.395 88.2489C102.795 88.4736 103.153 88.7588 103.467 89.1045C103.611 89.2687 103.72 89.4588 103.793 89.6806C103.865 89.9024 103.856 90.1012 103.769 90.2798C103.677 90.4353 103.501 90.7032 103.239 91.0864C102.977 91.4695 102.686 91.8728 102.372 92.2991C102.058 92.7255 101.761 93.1316 101.487 93.5148C101.213 93.9008 101.017 94.16 100.899 94.2954C100.291 95.1452 99.7087 95.995 99.1496 96.8477C98.5905 97.7004 98.0429 98.5559 97.5098 99.4172C98.5213 100.44 99.6079 101.385 100.772 102.255C101.934 103.125 103.092 104 104.245 104.882C104.461 105.055 104.568 105.242 104.568 105.441C104.568 105.639 104.502 105.85 104.375 106.069C104.248 106.288 104.084 106.504 103.885 106.711C103.686 106.918 103.499 107.12 103.32 107.313C102.68 107.958 102.017 108.575 101.334 109.168C100.651 109.762 99.9595 110.349 99.262 110.934C99.0574 111.11 98.8095 111.162 98.5185 111.093C98.2764 111.041 98.0631 110.951 97.8787 110.83C97.6942 110.709 97.4982 110.583 97.2907 110.456C97.1322 110.344 96.8584 110.136 96.4694 109.839C96.0803 109.543 95.671 109.22 95.2387 108.872C94.8064 108.523 94.4001 108.189 94.0197 107.866C93.6392 107.544 93.3799 107.325 93.2444 107.207C93.1752 107.359 93.0369 107.685 92.8294 108.186C92.6219 108.687 92.3942 109.223 92.1492 109.788C91.9043 110.355 91.6737 110.888 91.4518 111.392C91.2328 111.896 91.0887 112.225 91.0195 112.374C90.8235 112.735 90.5555 112.953 90.2183 113.034L90.2096 113.043Z" fill="black"/>
<path d="M43.2992 79.0337L42.8698 76.4555C42.8007 76.0378 42.4029 75.7555 41.985 75.8246L29.1947 77.9563C28.7768 78.0255 28.4944 78.423 28.5636 78.8407L28.993 81.4189C29.0045 81.4823 29.0621 81.5255 29.1255 81.5139L43.2041 79.1662C43.2675 79.1547 43.3108 79.0971 43.2992 79.0337Z" fill="black"/>
<path d="M44.3384 85.9735L30.2612 88.3205C30.1984 88.331 30.156 88.3904 30.1665 88.4531L30.9313 93.0363C30.9418 93.0991 31.0012 93.1415 31.064 93.131L45.1412 90.784C45.204 90.7735 45.2464 90.7141 45.2359 90.6514L44.4711 86.0682C44.4606 86.0054 44.4012 85.963 44.3384 85.9735Z" fill="black"/>
<path d="M43.4038 80.3875L29.3266 82.7345C29.2638 82.745 29.2214 82.8044 29.2319 82.8671L29.9218 87.0014C29.9323 87.0641 29.9917 87.1065 30.0545 87.0961L44.1317 84.749C44.1945 84.7386 44.2369 84.6792 44.2264 84.6164L43.5365 80.4822C43.526 80.4194 43.4666 80.377 43.4038 80.3875Z" fill="black"/>
<path d="M37.9474 71.7168L31.3418 72.8172C31.1314 72.8518 30.996 73.0707 31.0334 73.307L31.6963 77.2765C31.7078 77.3399 31.7655 77.3831 31.8289 77.3716L38.9647 76.1818C39.0281 76.1703 39.0714 76.1127 39.0598 76.0493L38.397 72.0798C38.3566 71.8436 38.1549 71.6823 37.9474 71.7168ZM38.1203 76.2856L32.6618 77.1958C32.5984 77.2074 32.5378 77.1642 32.5292 77.1008L32.0306 74.1135C31.996 73.9033 32.12 73.7074 32.3073 73.6757L37.3162 72.8403C37.5035 72.8086 37.6851 72.9555 37.7197 73.1658L38.2183 76.153C38.2298 76.2164 38.1866 76.2769 38.1232 76.2856H38.1203Z" fill="black" stroke="black" stroke-miterlimit="10"/>
</g>
<defs>
<clipPath id="clip0_26_3">
<rect width="136.771" height="139.761" fill="white"/>
</clipPath>
</defs>
</svg>
